/* XPM */
static char *_4667_768226d59596cf8c02193af65684e24539c4a826902868d704537277b8a3ddc0[] = {
/* columns rows colors chars-per-pixel */
"34 34 209 2 ",
"   c #956E32",
".  c #9F723B",
"X  c #8E7648",
"o  c #937C4A",
"O  c #8D7552",
"+  c #8D7B5D",
"@  c #85745A",
"#  c #937559",
"$  c #967957",
"%  c #AA7C41",
"&  c #947D69",
"*  c #957F71",
"=  c #AE863E",
"-  c #B2873D",
";  c #D6991D",
":  c #ED9B0B",
">  c #F49D03",
",  c #F29D0F",
"<  c #ED9F1A",
"1  c #E79E14",
"2  c #F09A13",
"3  c #F5AD03",
"4  c #FDAB03",
"5  c #FBA60D",
"6  c #F6AC0C",
"7  c #FCAC0B",
"8  c #FDA702",
"9  c #F9B005",
"0  c #FDB00C",
"q  c #ECA31C",
"w  c #EEA117",
"e  c #F5AD14",
"r  c #FBAC13",
"t  c #F1AD1B",
"y  c #F7A618",
"u  c #EAB21D",
"i  c #FBB314",
"p  c #F6B41D",
"a  c #FDB51A",
"s  c #FDB91D",
"d  c #F4B213",
"f  c #E7A60C",
"g  c #CC8F25",
"h  c #D49722",
"j  c #C78735",
"k  c #EA9624",
"l  c #E39C23",
"z  c #ED9C24",
"x  c #E49D2C",
"c  c #E99A2A",
"v  c #E79C31",
"b  c #DBA12F",
"n  c #DEA53B",
"m  c #DDA035",
"M  c #ECA324",
"N  c #E9AF20",
"B  c #EAA52B",
"V  c #E7A528",
"C  c #F4A525",
"Z  c #F0A62B",
"A  c #E7B22E",
"S  c #FFB526",
"D  c #FEBC25",
"F  c #FFB62A",
"G  c #FFB92C",
"H  c #E2A132",
"J  c #E2A43C",
"K  c #FFBD33",
"L  c #F7B739",
"P  c #FFBE3D",
"I  c #FFC12C",
"U  c #FFC335",
"Y  c #FEC33B",
"T  c #F9C63A",
"R  c #9C8051",
"E  c #A6814D",
"W  c #B88844",
"Q  c #A8875B",
"!  c #B18653",
"~  c #BA9547",
"^  c #948363",
"/  c #9B896A",
"(  c #9A8669",
")  c #9F9770",
"_  c #A28D6D",
"`  c #B89460",
"'  c #A68F70",
"]  c #A79374",
"[  c #AC9C72",
"{  c #AB9D79",
"}  c #AA967B",
"|  c #B99875",
" . c #BDA46B",
".. c #ADA076",
"X. c #BDAE76",
"o. c #B4A67A",
"O. c #B4AB7E",
"+. c #BEAE7C",
"@. c #B8A67A",
"#. c #BDB476",
"$. c #BEB37D",
"%. c #B7B57C",
"&. c #CB9340",
"*. c #D69A46",
"=. c #E19D4A",
"-. c #CFA747",
";. c #DCA746",
":. c #DAA75D",
">. c #C6A65D",
",. c #E4A64B",
"<. c #E2A94E",
"1. c #E0A140",
"2. c #EDB846",
"3. c #E5A753",
"4. c #E5A955",
"5. c #E7BD5B",
"6. c #CEB16B",
"7. c #CEB366",
"8. c #D2B361",
"9. c #C4AE75",
"0. c #CFAF72",
"q. c #C4AE7B",
"w. c #C9AE7D",
"e. c #C9A475",
"r. c #D4AD72",
"t. c #C3B376",
"y. c #CDB272",
"u. c #C2B27D",
"i. c #CAB37D",
"p. c #C2B87C",
"a. c #D1B47D",
"s. c #DAB370",
"d. c #EDBD69",
"f. c #EBC148",
"g. c #FFC441",
"h. c #FFC74C",
"j. c #FDCB4B",
"k. c #FFC947",
"l. c #ECC451",
"z. c #F7C957",
"x. c #F9CF6D",
"c. c #FFD563",
"v. c #FBD56C",
"b. c #EFD87A",
"n. c #FBD674",
"m. c #FFDA73",
"M. c #FCDE7D",
"N. c #B29E83",
"B. c #B3A482",
"V. c #BFAD82",
"C. c #B0A288",
"Z. c #BEB383",
"A. c #BAB581",
"S. c #C4AE83",
"D. c #C5AF8A",
"F. c #CAAE83",
"G. c #C3B282",
"H. c #C9B484",
"J. c #C4BA85",
"K. c #C4B289",
"L. c #CAB48C",
"P. c #CCBB8D",
"I. c #CEBD87",
"U. c #D1BC84",
"Y. c #D5BF8C",
"T. c #C8B591",
"R. c #D7BB92",
"E. c #CDC08B",
"W. c #D9C48B",
"Q. c #D1C186",
"!. c #D5C194",
"~. c #DCC992",
"^. c #DBC797",
"/. c #DED09F",
"(. c #E5C989",
"). c #EEDB8C",
"_. c #FDDC84",
"`. c #F4DA8E",
"'. c #FDDD8C",
"]. c #F7D98A",
"[. c #E0CF97",
"{. c #E3D49E",
"}. c #EBDA99",
"|. c #F4DD94",
" X c #F3DE9A",
".X c #FDDE9C",
"XX c #FBDA95",
"oX c #F4E08D",
"OX c #F3E193",
"+X c #F3E29B",
"@X c #F9E49C",
"#X c #FAE596",
"$X c #DDD3A0",
"%X c #E2CFA4",
"&X c #E7DAA4",
"*X c #EADCA4",
"=X c #E8DAAA",
"-X c #F4DEA1",
";X c #F2DFB4",
":X c #EFE4AC",
">X c #F4E2A3",
",X c #F6E6AA",
"<X c #EEE1B7",
"1X c #F1E3B4",
"2X c #FCECB4",
"3X c #F8ECBB",
"4X c #FDF1B7",
"5X c #FFF3C3",
"6X c #FFF3C8",
/* pixels */
"t.u.S.S.u.$.Z.K.L.S.S.Z.Z.Z.J.$.A.Z.Z.Z.G.S.t.t.#.%.Z.V.G.9.G.G.u.u.",
"u.u.G.G.G.u.Z.Z.D.S.S.K.J.Z.$.+.G.V.K.+.S.L.q.t.p.p.J.S.u.q.J.G.G.S.",
"$.G.S.G.u.$.u.u.G.G.G.u.+.+.u.H.w.u.I.I.T.P.J.t.t.q.i.u.i.q.H.q.G.$.",
"G.Z.S.V.+.t.t.u.$.u.i.p.u.i.i.q.i.U.E.&X<X<X1X!.u.i.S.H.u.u.G.G.u.u.",
"Z.Z.Z.V.G.u.t.t.u.u.+.$.i.W.(.!.Y.[.}.4X4X3X5X<X=X!.S.G.$.#.u.J.u.G.",
"Z.Z.G.J.u.u.t.t.+.J.~.~.}. X-X}.&X&X2X,X>X:X:X3X6X%XV.u.t.#.$.$.$.G.",
"u.$.$.J.S.q.G.E.$X=X1X:X}.OX+X>X,X}.+X|.OX#X+X,X5X%XS.q.u.p.u.$.u.u.",
"u.$.$.Z.S.G.P.{.3X1X:X>X+X+X+X X X+X@XOX`.oXOX+X2X%XS.H.q.u.u.u.Z.u.",
"u.$.$.G.S.S.P.=X3X,X-X>X+X+X+X+X.X X X|.+XOX X X-XY.w.G.G.S.u.q.u.u.",
"u.u.$.Z.G.S.L./.2X@X|.|.+X+X+X|..X.X@XoXOX`.`.XX(.a.t.u.G.G.G.G.S.u.",
"G.G.G.Z.S.S.u.Q.`._._.'.@X+X|..X.XXXoXb.M.oX].(.i.t.#.$.G.V.Z.$.u.u.",
"S.S.Z.S.H.G.+.p.8.5.x.x.#XOX].'.'._.v.l.f.l.d.s.y.u.p.#.G.G.Z.G.Z.G.",
"G.S.G.G.G.u.q.6.-.h H 2._.oX_.n.c.j.T u f 1 J :.9.Z.#.#.u.F.D.G.G.u.",
"G.G.G.G.u.G.G.y.;.V q L M._.v.z.Y N u p r : c 4.a.J.$.$.y.q.S.K.G.u.",
"u.q.u.u.q.G.G.0.n < y G m.n.z.A t e Y k.G 2 z =.e.B.O.J.p.t.G.Z.V.u.",
"u.$.u.G.u.G.S.y.n < r F c.m.z.N 6 e g.h.G y k j E ^ ) O.p.t.Z.Z.Z.u.",
"u.u.H.u.i.u.A.y.J w 5 G m.m.j.p 4 7 g.h.U q l ,.0.[ ( { Z.$.J.%.u.G.",
"u.u.S.G.u.$.Z.6.n q 5 F c.c.U 6 4 r Y h.G q x ,.0.[ / } G.$.u.$.$.G.",
"$.$.Z.u.$.$.K.y.n w 5 r U U s 7 4 r g.j.K M v 4.y.o./ ] G.t.#.$.$.u.",
"$.$.Z.$.$.$.Z.y.J q r 5 d d 9 3 4 d U Y G < v 3.i.@./ ] G.t.$.p.u.G.",
"t.u.J.Z.$.$.K.y.;.M F r 9 3 3 9 4 4 d s r : c 3.y.o.( ' P.S.G.G.$.u.",
"G.u.G.S.t.u.u.6.n Z P S 9 3 3 9 4 4 3 4 4 > Z ,.y.o.R ' T.G.G.G.S.u.",
"S.G.D.D.u.u.u.8.H C P S 4 4 4 4 4 0 0 4 4 > z ,.y...& _ T.D.S.G.G.u.",
"G.S.D.D.u.t.t.8.H C P F 4 4 4 4 7 D i 4 4 > < ,.i...+ / D.S.G.G.u.G.",
"$.Z.D.D.u.$.t.7.H C P G 5 4 4 4 i I D 7 8 > c 3.H.B.+ _ G.u.t.u.u.u.",
"$.Z.D.D.G.$.A.6.J C K D 5 4 4 4 r s i 7 4 3 c 3.!.C.@ _ G.p.#.i.$.u.",
"#.t.G.F.G.G.K.y.n M D a 3 4 4 4 4 7 7 7 4 > k *.| & & N.Z.$.u.u.u.S.",
"#.u.q.D.u.G.G.r.n q S a 7 4 7 7 4 4 7 8 5 , h j $ & N.T.Z.%.u.q.u.G.",
"$.G.G.F.G.q.F.r.;.V t p r 5 7 7 7 7 7 6 y < x &.` q.G.+.A.J.#.u.u.u.",
"u.q.i.u.u.u.w.r.;.m h Z B B M B B ; ; ; h g *.:.0.H.u.#.A.A.$.i.G.$.",
"S.u.J.$.$.u.w.y.>.~ W W W W = = % .         ! e.S.V.#.p.A.Z.L.q.S.u.",
"u.S.u.Z.$.u.u.u.a. .Q Q Q R o X # O O O O O | R.D.J.t.#.K.G.D.S.G.u.",
"G.u.G.u.Z.u.u.u.u.u.u.q.F.G.u.u.G.S.L.P.P.L.G.S.G.G.u.u.Z.G.S.G.$.u.",
"H.u.u.u.u.G.u.G.u.u.G.u.u.u.u.G.G.S.G.G.G.u.u.G.G.u.u.u.u.G.u.u.q.G."
};
