/* XPM */
static char *_8925_8a430e63c1ff5637ed6137b3da6928b8605d26b1b75b85a7ea9fdec953d0076c[] = {
/* columns rows colors chars-per-pixel */
"36 36 196 2 ",
"   c #57BF5D",
".  c #5EBD5F",
"X  c #74B74D",
"o  c #65B55C",
"O  c #71BC5F",
"+  c #7EB452",
"@  c #6BB846",
"#  c #64BD62",
"$  c #6ABE63",
"%  c #75BC66",
"&  c #74BD68",
"*  c #7BBB6A",
"=  c #5EC84E",
"-  c #4EC65D",
";  c #4ECA5B",
":  c #4DC856",
">  c #54C657",
",  c #5BC255",
"<  c #56CD53",
"1  c #5ACC53",
"2  c #53C55D",
"3  c #5AC25D",
"4  c #52C85A",
"5  c #71C24A",
"6  c #61CA53",
"7  c #65C455",
"8  c #73C65C",
"9  c #77E55E",
"0  c #7BE45D",
"q  c #4EC661",
"w  c #4EC961",
"e  c #55C561",
"r  c #5AC361",
"t  c #52C962",
"y  c #59C861",
"u  c #64C264",
"i  c #6BC164",
"p  c #6DC169",
"a  c #6AC96B",
"s  c #72C365",
"d  c #7CC46D",
"f  c #73CA6C",
"g  c #7CCC73",
"h  c #77E560",
"j  c #7CE560",
"k  c #99BC4C",
"l  c #A0B651",
"z  c #B0BB5F",
"x  c #85BC6B",
"c  c #8BBF6D",
"v  c #93BB6D",
"b  c #99BB64",
"n  c #86BC70",
"m  c #8EBE73",
"M  c #94BF74",
"N  c #9BBD74",
"B  c #9FBE7A",
"V  c #B9B762",
"C  c #B4BD6F",
"Z  c #BBBC6A",
"A  c #BDB06A",
"S  c #BFAF73",
"D  c #AEBD74",
"F  c #A5BD7A",
"G  c #ABBD7B",
"H  c #B6B777",
"J  c #BDB576",
"K  c #B4BC73",
"L  c #BABB74",
"P  c #B7B67C",
"I  c #BDB57D",
"U  c #B4BB7D",
"Y  c #BBB97C",
"T  c #DEBC51",
"R  c #E1BE4A",
"E  c #E4BA5C",
"W  c #D2AF6F",
"Q  c #C7B26F",
"!  c #DCBE68",
"~  c #DCB56A",
"^  c #C5AF7D",
"/  c #C9AE7F",
"(  c #CDAF73",
")  c #C2B475",
"_  c #C3B27E",
"`  c #CFB47F",
"'  c #CAB675",
"]  c #DFB470",
"[  c #DEB879",
"{  c #D1BD76",
"}  c #E9B770",
"|  c #E8BB78",
" . c #E8B566",
".. c #96C34C",
"X. c #8DDF56",
"o. c #85DD5D",
"O. c #8FDF5B",
"+. c #93DD56",
"@. c #93DD5D",
"#. c #9ADC5E",
"$. c #9CD552",
"%. c #BBC65E",
"&. c #A5DA5E",
"*. c #ABDE5F",
"=. c #ADD359",
"-. c #BADF5E",
";. c #8AE74D",
":. c #84E94D",
">. c #85E555",
",. c #8BE454",
"<. c #84E955",
"1. c #84E45B",
"2. c #8CE45B",
"3. c #83E95A",
"4. c #91E356",
"5. c #92E15B",
"6. c #84C36E",
"7. c #8AC06E",
"8. c #81CC6F",
"9. c #9ECB69",
"0. c #9DCD67",
"q. c #8BDD61",
"w. c #9BD464",
"e. c #95DD63",
"r. c #9CDA63",
"t. c #9CD668",
"y. c #97DC6D",
"u. c #9CDB6A",
"i. c #84C172",
"p. c #8CC273",
"a. c #87CC75",
"s. c #8AC873",
"d. c #95C176",
"f. c #9CC478",
"g. c #94CA7A",
"h. c #9DC879",
"j. c #9ADC70",
"k. c #ACCC67",
"l. c #ACC36B",
"z. c #A5CD6A",
"x. c #AACB6C",
"c. c #A3C768",
"v. c #B4C660",
"b. c #B1C46F",
"n. c #B1CB6A",
"m. c #A2D566",
"M. c #A5D26B",
"N. c #A1DA6D",
"B. c #A4D866",
"V. c #A6C077",
"C. c #ADC573",
"Z. c #ABC972",
"A. c #A4C27B",
"S. c #ABC17C",
"D. c #B3C374",
"F. c #B8C776",
"G. c #B3CA75",
"H. c #B5C379",
"J. c #B9C27C",
"K. c #B2CC79",
"L. c #ABD373",
"P. c #A5DA71",
"I. c #A4D772",
"U. c #86E561",
"Y. c #8DE163",
"T. c #94E163",
"R. c #9CE56A",
"E. c #D4C858",
"W. c #D1C655",
"Q. c #E2C24B",
"!. c #E2C150",
"~. c #F0D85C",
"^. c #CFC36D",
"/. c #D8C161",
"(. c #C1D961",
"). c #D4D16A",
"_. c #EEDF62",
"`. c #E6DD78",
"'. c #E6D47E",
"]. c #DEE264",
"[. c #D8E368",
"{. c #E5E66F",
"}. c #E1E263",
"|. c #BEB481",
" X c #B3BD81",
".X c #BBB981",
"XX c #C6AF82",
"oX c #C8AD81",
"OX c #C5AE8A",
"+X c #C3B281",
"@X c #C2B18A",
"#X c #CFBC82",
"$X c #D2BC80",
"%X c #DDC98E",
"&X c #E9D18B",
"*X c #EAD093",
/* pixels */
"|.|._ _ / +XOXOX+X.X|.P I K Z.I.R.q.8 g g.A..XI _ +X_ I U P +XoXI |.|.I ",
"|.|._ _ / / OXOX|._ P I Y K Z.N.R.q.7 s 6.d.G .XP _ +X_ Y .X+X+X+X|.|.XX",
"|.I _ _ _ XXoXOX_ I I J L F.M.t.T.o.7 , $ d A.U I +XoX_ I I ` ^ |.|.|.+X",
"|.I _ ) ^ _ XX` _ _ _ J ) F.M.e.2.o.1 2 3 i d.U P +X+X_ P P _ +XXX|.+X+X",
"|._ ) _ _ _ +X+X_ _ J J L G.j.e.1.0 1 ; ; u p.F  X|.|.P U H |.I _ _ _ _ ",
"|.+X^ _ _ _ +X+X_ ) ) S H G.I.Y.1.0 1 : ; r x V.U  XG F F G U .X|._ +X^ ",
"OX|.+XXX|.|.|.|.I I _ I H C.j.Y.1.0 1 > t 7 x S.S.F M n x m B  XI +X+X^ ",
"|.OX+X+X|.|.P P Y Y _ I Y C.y.U.1.0 1 > y u x A.A.d.* # o & n B  X+X|.|.",
"|.OX|.|.P U U U K K P P P Z.y.U.1.3.1 , 2 $ 7.V.d.* u r r . & m G P |.P ",
"OX|.^ I U D.C.Z.Z.D.L L K x.e.U.3.0 6 ,   8 7.h.g.p y q q e p * F .X.XP ",
"+XI I J D.G.x.M.M.x.D.K K x.e.<.3.0 = > 3 u 6.g.a.$ r q w e r i.S..X.X|.",
"I ^ J L b.x.B.w.B.B.x.l.b.k.5.,.3.9 < > 4 u g a.g u e q w q u i.G I +X_ ",
"I I J L n.m.#.+.4.#.M.l.l.k.#.,.3.9 < : - 2 i f a r e t q 2 # p.U |._ +X",
"I I J Z l.m.4.,.,.@.t.Z.l.k.#.X.3.0 < ; w 2 r r r e t t q 2 $ m  X|.I +X",
"^ |.J C x.w.5.>.<.2.t.z.l.l.#.X.3.h < ; w q   2 q q t t 4 r * d. X.XI |.",
"|.|.I K z.#.2.<.3.2.u.c.c.z.&.5.2.h < ; - q t t q q e e 2 i x F  X.XI |.",
"@X+XI K x.r.2.>.,.T.t.0.c.w.#.@.U.j 1 4 t t t e e r r # $ x N  X|.+X_ +X",
"OX@X_ K k.r.,.>.2.@.u.w.w.w.e.@.2.0 1 > 4 2 r 3 # # $ & x v G .XI _ _ _ ",
"OX@XI K z.r.2.>.1.5.e.w.@.@.5.4.>.0 1 , 2 r i i % * x m N G .X|.P +X_ _ ",
"OX@X_ L Z.N.2.>.>.2.O.@.@.@.4.,.0 h 1 4 2 u d s.d.f.F  XH P |.|.#X+X+X+X",
"XX+X|.P K.P.R.3.1.2.O.O.4.,.;.:.3.9 1 4 3 i 6.h.S.U U .XP I ^ XX+X_ +X+X",
"+X+X_ J F.L.y.Y.2.2.O.2.4.;.;.:.3.9 1 4 r $ p.V..X.X.X_ I I XXXX_ +XoX_ ",
"_ +X_ P J.K.L.R.T.T.@.@.5.,.;.:.<.9 < 4 r $ c F Y |.+X_ |.P |.|.+XoX_ oX",
"I _ ^ I I J.L.L.N.N.u.r.T.4.;.<.3.9 < 4 e $ p.S.I _ +X+XP P |.|.+X_ ` oX",
"I _ _ I ^ P H.G.L.Z.L.M.w.e.5.<.3.0 < 4 2 # 7.F Y +X+XI Y  X|.|.+X_ _ _ ",
"J I ^ ` XX^ I Y K C.l.x.c.w.@.2.2.0 4 ; t u p.A.Y +X_ _ Y |.|.|.+X_ +X_ ",
"P I +XoXoX/ _ Y P H K K l.m.r.2.2.j < ; 2 u 7.V.I _ +X+XI I |.+X+XI I _ ",
"I I +XOXoX/ _ _ +XP |.Y D z.u.2.2.j < ; 2 u 7.S.I +X_ _ _ _ XX+X_ I |.I ",
"_ |.+XXX/ / ^ _ XX|.|.P L x.r.5.2.0 < ; 2 u 7.D _ oX+X_ I _ XXXX_ _ I I ",
"XX^ |.^ ^ _ ` _ |.|.+X|.K Z.r.,.2.0 < ; 2 i c F I _ _ +X_ +X^ XX_ ) ) _ ",
"XXI _ _ ^ _ _ I |.|.+X_ L n.B.4.2.0 < : 3 i 7.S._ _ _ I I |.+XXX( _ ^ _ ",
"^ XX_ _ _ _ I I |..X+XI C n.&.+.5.0 = 1 7 O 7.S.) _ |.+XP I _ XX^ ^ _ ^ ",
"oXXXoXXXXX+X|.|.I I ^ I Z %.=.$.@.o.5 @ X + b D I S +X_ +X.X+X+X_ _ _ _ ",
"^ ^ XXXXOX|.XX|._ _ ) A V %.-.-.*.&...k k l z Z ' ' ` ^ +X_ I _ I +X_ _ ",
"_ _ +XXX|.XX_ I _ ` ^.{ ^.).[.[.}.}.W.W.E.T ^.! ~ ] [ ( ) ) I ) +X|.|.|.",
"I _ |.|.+X|.I I _ %X*X*X'.`.{.}.}.~.Q.R !.R E E  .} | W Q Q ) J I |.+X|."
};
