/* XPM */
static char *_801_47958f8ee03b4389b0beca91e69c9c4717908f838dbcacc6b143a967c18dba00[] = {
/* columns rows colors chars-per-pixel */
"32 32 219 2 ",
"   c #0D0300",
".  c #090502",
"X  c #150300",
"o  c #160B00",
"O  c #1C0B02",
"+  c #190908",
"@  c #1D1102",
"#  c #1D1B09",
"$  c #171808",
"%  c #1C1213",
"&  c #170D15",
"*  c #240200",
"=  c #2C0300",
"-  c #280A00",
";  c #350400",
":  c #3A0400",
">  c #330A01",
",  c #3B0B02",
"<  c #2F1300",
"1  c #251A03",
"2  c #24190B",
"3  c #2B1C0D",
"4  c #271505",
"5  c #391104",
"6  c #331904",
"7  c #3D130A",
"8  c #37190C",
"9  c #291916",
"0  c #3A1D13",
"q  c #3C1F19",
"w  c #3D220A",
"e  c #2A2317",
"r  c #3B2514",
"t  c #33261C",
"y  c #3F3315",
"u  c #291F27",
"i  c #2C2323",
"p  c #2B2823",
"a  c #352C2B",
"s  c #372A27",
"d  c #3C332D",
"f  c #353429",
"g  c #39353E",
"h  c #410D00",
"j  c #400000",
"k  c #441705",
"l  c #5C1C10",
"z  c #471F17",
"x  c #44300F",
"c  c #442615",
"v  c #492514",
"b  c #4B291A",
"n  c #5D2312",
"m  c #552E1D",
"M  c #50361C",
"N  c #4C270D",
"B  c #652717",
"V  c #75371E",
"C  c #4E2921",
"Z  c #44322D",
"A  c #423026",
"S  c #5E3224",
"D  c #55322A",
"F  c #493936",
"G  c #5B3630",
"H  c #633222",
"J  c #6B3D2A",
"K  c #713824",
"L  c #663E37",
"P  c #7A3F31",
"I  c #564326",
"U  c #5F4C35",
"Y  c #554438",
"T  c #68492B",
"R  c #75402E",
"E  c #764836",
"W  c #685333",
"Q  c #6F5638",
"!  c #3D3941",
"~  c #473F4E",
"^  c #594C46",
"/  c #4A4254",
"(  c #584756",
")  c #5C5557",
"_  c #5D5844",
"`  c #644040",
"'  c #635C45",
"]  c #64534D",
"[  c #685C46",
"{  c #775D47",
"}  c #644A55",
"|  c #655455",
" . c #625A51",
".. c #64535A",
"X. c #665A5A",
"o. c #6C614A",
"O. c #72644C",
"+. c #7C6743",
"@. c #6C615D",
"#. c #72695E",
"$. c #5E5B66",
"%. c #675963",
"&. c #686366",
"*. c #736C6C",
"=. c #79766B",
"-. c #6D6976",
";. c #73697C",
":. c #777275",
">. c #872F23",
",. c #8A3527",
"<. c #89362D",
"1. c #94382D",
"2. c #844A3B",
"3. c #99533D",
"4. c #964F3B",
"5. c #894F44",
"6. c #965949",
"7. c #A45C45",
"8. c #BF5F53",
"9. c #806947",
"0. c #896B45",
"q. c #836B4A",
"w. c #8C7149",
"e. c #847147",
"r. c #847453",
"t. c #877A5C",
"y. c #96794F",
"u. c #A26249",
"i. c #AC6E5F",
"p. c #A96954",
"a. c #B76558",
"s. c #8C7D60",
"d. c #907F65",
"f. c #AB7568",
"g. c #B87867",
"h. c #B27970",
"j. c #AA7972",
"k. c #C16856",
"l. c #C77F70",
"z. c #8E8357",
"x. c #81806C",
"c. c #908162",
"v. c #9A9277",
"b. c #9B947B",
"n. c #9E976B",
"m. c #A28E63",
"M. c #A99168",
"N. c #A29769",
"B. c #A88A77",
"V. c #B78275",
"C. c #A89C79",
"Z. c #AAA07C",
"A. c #B7AD7D",
"S. c #BCAE7B",
"D. c #BAAA76",
"F. c #BEB376",
"G. c #B6B57C",
"H. c #BDB47D",
"J. c #BCB97E",
"K. c #CD8368",
"L. c #C2AD77",
"P. c #C4AF7D",
"I. c #C8AE7C",
"U. c #C1B277",
"Y. c #C3B27D",
"T. c #C9B47E",
"R. c #988C85",
"E. c #9E9586",
"W. c #AB8980",
"Q. c #A69789",
"!. c #BB9887",
"~. c #A09291",
"^. c #ADA28B",
"/. c #AFAA8A",
"(. c #BBAE81",
"). c #BCAB8B",
"_. c #B8A589",
"`. c #BCB383",
"'. c #BEB28A",
"]. c #BCB989",
"[. c #BBB196",
"{. c #C9948A",
"}. c #CA9893",
"|. c #D19D92",
" X c #E49A8B",
".X c #C4AF84",
"XX c #CBAD83",
"oX c #C4AF8B",
"OX c #CAAD89",
"+X c #D0AB81",
"@X c #C3B383",
"#X c #CCB284",
"$X c #C4BA84",
"%X c #C3B48A",
"&X c #CAB68B",
"*X c #C2B98A",
"=X c #CCBA8C",
"-X c #CAA092",
";X c #D6AD9F",
":X c #C2B493",
">X c #C6BB94",
",X c #CABE93",
"<X c #CCBD9A",
"1X c #C9B899",
"2X c #D2BD93",
"3X c #E9A99C",
"4X c #F1B59D",
"5X c #D7A8A4",
"6X c #E2AEA3",
"7X c #F4AEA2",
"8X c #EBB6A5",
"9X c #F6B5A5",
"0X c #F5B7A9",
"qX c #ECBDB5",
"wX c #CEC49C",
"eX c #CAC294",
"rX c #D3C399",
"tX c #D6C5A5",
"yX c #D3C6B3",
/* pixels */
"@XT.Y.Y.T.U.T.@X@X`.:Xv : K.K = ; : : = b oX%X`.@XY.I.I.T.H.@X@X",
"@XP.Y.Y.T.U.Y.Y.S.*X_.< 3.7.7.7.7.6.6.E 6 _.%X@X`.Y.P.T.H.F.H.`.",
"`.`.G.`.H.Y.Y.@XH.>X[.0 u.k.8.8.8.8.8.5.6 >X].(.`.P.P.Y.J.G.G.@X",
"Y.`.`.`.H.H.Y.`.$XC.t.- K ,.>.1.<.<.<.S - t.Q.*X@XY.@XY.G.G.@X*X",
"Y..XoXOXT.H.`.$XN.1 x m n n B l n l B l H 7 1 n.*X@XP.P.T.Y..XXX",
"Y.@XOXOXP.L.J.].z.O W E 2.R E T R E P 5.J T O z.$X@XP.I.T..X.XXX",
"U.Y..X.XP.P.T.@X*X0.T m > R J K J J H ; J I +.%X*X@XI.I.P.T..XT.",
"`.H..X.X@XT.`.P.@X*XrX_.b qX8X4X9X4X6Xv !.tX*XH.@XP..X@XY.@XS.H.",
"H.H.H.@XY.@X@X@XH.`.@XB.C 5X0X4.6.7X}.z B.oXY.J.H.@X`.Y.P.F.`.J.",
"$X`.F.H.H.Y..X(.@XA.*X_.0 5X0X X X7X}.0 ).*XG.`.H.H.H.`.Y.Y.Y.G.",
"@X@XU.U.T.XXXXXXS.$XeX_.r D |.3X3X{.D r [.wX@XD.@X@X@X@XU.T.H.H.",
"@XY.U.T.@XXXXX.X*XG.T 6 r - > > ; ; * r < I (.*X@XT.T.Y.T.U.Y.Y.",
"%X`.U.U.T.P.(.'.<XW h p.h.< ^ X.X.` 8 f.6., W rXS.H.H.Y.@X@XH.H.",
"@X@XU.U.P.`.*X]./.X K l.f.7  .! g | k i.g.B X ^.:X@XH.F.@X#X@X`.",
"oX@XY.H.Y.@X$X].' O k g.f.; | ~ / .., p.p.h O ' >X*XF.F.(.oX.X@X",
".X.X@XY.P.S.(.`.# _ , 6.g., } ;.;.} h i.2.,  .$ _.P.T.T.@X@X.XXX",
"@XP.@XS.T.L.eXt.# =.q L V.: } ( / ..j i.S 0 *.f C.#XY.Y.L.@X`.@X",
"(.*XH.*XL.U.1XY f *.9 G h.h ..g ! ..; f.C s *.&.Q.&XP.L.#XH.`.@X",
"H.G.@XY.U.&X1X% ) $.  ` }., | :.:.| k j.Y X ) / 3 :X#XP.@XH.H.F.",
"Y.Y.S.T.T.=X{ X 9 + 9 8 S * 3 i e 9 * b 8 2 % 9 O { 2XP.Y.U.Y.@X",
"+X#XP.@X$XM.k }.B.w U x w.y.w.+.w.w.0.w.x U r W.!., M.=X@XY.XXI.",
"XXXX#XH.$Xm.k 8X}.c Y y r.Q q.q.+.+.9.r.y I b ;X;XN m.$XD.Y.OX+X",
"(.`.H.H.J.$XI r 1 O.#.. a s p a a p i i . #.[ 8 k M ].G.$X$X.X%X",
"].`.H.H.J.H.*Xt.c.yX) a :.-.-.$.%.-.-.&.i ) yXc.z.>X].J.G.H.`.'.",
"%X'.Y.H.F.J.*X#X#X2X' a &.$.u & & i &.) e [ 1X&X&X*XH.H.U.T.'.'.",
"%X.XT.Y.F.F.T.#XL.rX[ e :.| + ~.R.% *.&.2 o.rXD.@XT.Y.U.T.@X%X'.",
".X.XP.I.U.U.Y.P.L.2X[ + F d X E.R.+ F d o o.2XL.I.L.Y.H.T..X.X@X",
"H.Y..XT.Y.H.Y.I.U.=XO.4 Z A X b.b.o Z Z o O.&XT.Y.T.Y.Y.P.T.I..X",
"Y.Y.P.Y.Y.H.Y.T.Y.,XW i Z A @ v.b.1 Z Z 3 ' wXY.Y.U.@X`.P.I.Y.Y.",
"Y.L.@X'.H.@X@XP.S.eXo.. ] Y   v.b.. Y ] . o.>XS.Y.Y.@X`.@X.XY.Y.",
"U.Y.'.`.`.`.Y.Y.S.wX' d ~.R.3 v.v.4 R.~.d _ wX`.Y.F.`.`.'..XY.Y.",
"T.Y.`.`.].G.@XP.S.eX=.o + O @ ^.Q.2 + % . x.1X(.T.Y.].`.`.`.T.Y."
};
