/* XPM */
static char *_877_01d4a4dc0dfd47fc172ad3379c8b71f75e376a1f422a70ad4e0489a67774ec3a[] = {
/* columns rows colors chars-per-pixel */
"32 32 215 2 ",
"   c #0F0000",
".  c #140100",
"X  c #1B0300",
"o  c #1D0C00",
"O  c #1D1300",
"+  c #240500",
"@  c #2A0700",
"#  c #240C00",
"$  c #290D00",
"%  c #241300",
"&  c #2A1400",
"*  c #261902",
"=  c #2B1A00",
"-  c #281608",
";  c #241909",
":  c #321301",
">  c #321C02",
",  c #3E1E06",
"<  c #3B1F0A",
"1  c #3B1700",
"2  c #351E16",
"3  c #2C220D",
"4  c #2C2502",
"5  c #312304",
"6  c #3C2004",
"7  c #302208",
"8  c #3C230A",
"9  c #312A07",
"0  c #421D04",
"q  c #442305",
"w  c #43240A",
"e  c #44290C",
"r  c #4A2608",
"t  c #422512",
"y  c #4B2C14",
"u  c #4F2F1B",
"i  c #452D16",
"p  c #4C3214",
"a  c #4D331B",
"s  c #523318",
"d  c #5A3B1D",
"f  c #523819",
"g  c #4E3C27",
"h  c #553A23",
"j  c #5C3C23",
"k  c #553A29",
"l  c #633F27",
"z  c #5D4224",
"x  c #5C432B",
"c  c #53422E",
"v  c #5A4836",
"b  c #644224",
"n  c #6A4625",
"m  c #65452B",
"M  c #6A462B",
"N  c #634B2E",
"B  c #6A4B2D",
"V  c #654924",
"C  c #6D552F",
"Z  c #74522D",
"A  c #654C31",
"S  c #6B4D34",
"D  c #644E3C",
"F  c #6B4D3C",
"G  c #684434",
"H  c #724D33",
"J  c #704D39",
"K  c #6D5135",
"L  c #66533C",
"P  c #6C523D",
"I  c #6B563A",
"U  c #745235",
"Y  c #7A5633",
"T  c #745B35",
"R  c #7B5934",
"E  c #73563C",
"W  c #7A563B",
"Q  c #75593C",
"!  c #7B5B3D",
"~  c #6B5342",
"^  c #6F5B45",
"/  c #645140",
"(  c #745743",
")  c #7A5642",
"_  c #745B44",
"`  c #7B5C43",
"'  c #775749",
"]  c #715C4C",
"[  c #7C5D48",
"{  c #715F51",
"}  c #706046",
"|  c #7C6345",
" . c #71604E",
".. c #7C624B",
"X. c #7C6454",
"o. c #7C6A52",
"O. c #7B6758",
"+. c #7F685A",
"@. c #7D705F",
"#. c #825E3C",
"$. c #84633F",
"%. c #835E4A",
"&. c #846444",
"*. c #8B6546",
"=. c #82654A",
"-. c #8B664C",
";. c #83684D",
":. c #8C694B",
">. c #916A4D",
",. c #926747",
"<. c #8C724E",
"1. c #9D754D",
"2. c #9D7D4B",
"3. c #836451",
"4. c #866B56",
"5. c #8C6C52",
"6. c #83695B",
"7. c #8B6E5B",
"8. c #916D53",
"9. c #936F59",
"0. c #8D725A",
"q. c #8A7153",
"w. c #987453",
"e. c #967C53",
"r. c #9B7A55",
"t. c #95755A",
"y. c #9B755C",
"u. c #957A5C",
"i. c #9C7B5B",
"p. c #977456",
"a. c #A27E5C",
"s. c #A57C50",
"d. c #8F7A65",
"f. c #937C63",
"g. c #9E7C64",
"h. c #967E6B",
"j. c #987F69",
"k. c #947165",
"l. c #A37A63",
"z. c #A07C6C",
"x. c #97835E",
"c. c #A5804C",
"v. c #A18253",
"b. c #AA8A5B",
"n. c #A88658",
"m. c #9C8262",
"M. c #96806A",
"N. c #9A826B",
"B. c #9D8175",
"V. c #A48363",
"C. c #A98764",
"Z. c #A78962",
"A. c #AB8B65",
"S. c #A4856B",
"D. c #A9876D",
"F. c #A68C6B",
"G. c #AA8A6B",
"H. c #B58D65",
"J. c #B28E6C",
"K. c #BD8D6A",
"L. c #B88C65",
"P. c #AF916D",
"I. c #B4936D",
"U. c #BB986C",
"Y. c #AB8975",
"T. c #A98670",
"R. c #B98F79",
"E. c #AC9176",
"W. c #B39273",
"Q. c #BA9576",
"!. c #B3967B",
"~. c #B7997F",
"^. c #BC9B7C",
"/. c #ADA17D",
"(. c #C5996D",
"). c #C8996F",
"_. c #C49A72",
"`. c #C89870",
"'. c #C49C78",
"]. c #CAA37C",
"[. c #AC9E89",
"{. c #AD9D83",
"}. c #B29F85",
"|. c #BB9D83",
" X c #ACA485",
".X c #AEAF84",
"XX c #ADA48B",
"oX c #AEAA8A",
"OX c #A5A186",
"+X c #B1A485",
"@X c #B2A984",
"#X c #B4A58A",
"$X c #BAAB88",
"%X c #B4A78A",
"&X c #B3B28B",
"*X c #B5B989",
"=X c #ADA592",
"-X c #ACA994",
";X c #A0A294",
":X c #B4A691",
">X c #B1A991",
",X c #B8AF90",
"<X c #B2A99D",
"1X c #BAB792",
"2X c #C29F83",
"3X c #C6A283",
"4X c #CAA583",
"5X c #C7A985",
"6X c #CCAA85",
"7X c #C5A58A",
"8X c #CCA689",
"9X c #CDAA89",
"0X c #D0AF82",
"qX c #C9A892",
"wX c #D7BBA5",
/* pixels */
"*X&XOX-X;X-XoX!.+X+X$X/./.oXXX=XXX{.XX=X=XXX X@X X#X{.%XoX X,X,X",
"@X9 o 2 ; ; * 4 > & & > 4 * & = = > > * & 5 = = = 5 > % 7 % 7 @X",
"#X$ . ) Y.t.t.m.z.l.1.s.e.x.n.i.s.w.r.i.i.e.e.e.e.<.t.E.I . % $X",
"}.> j + 5.U m |.z.R.(.K.E.F.W.G.I.I.J.I.W.I.I.I.C.e !...o v * /.",
"XX* | I . } m.f.z.k.j.z.j.N.h.N.f.N.M.h.M.M.M.f.f.h. .. { @.% oX",
"-X* I d h . & & X & $ @ $ . # % & $ X # # X % & $ > . v v { ; =X",
":X% C p } % &.w.U . h } ;.6 z !.!.j 8 ....8 j !.J.t.: 3.h =.= +X",
"#X& T q.L # y.n.C.$.. N 0.w V 6X7Xm w 5.5.w M 9X'.Q.@ =.z.&.: #X",
":X* T &.] . u T.i.Z.! . D 2 V 4X].b q >.,.q V 4X_.J.$ X.t.;.* #X",
"XX% T ;.^ $ + y G.w.m.Q # $ K 2X4Xn q >.*.q b 4X_.J.$ O.t...* XX",
"oX= Z *.( : T.1 y G.m.G.` . G qX2Xb e >.:.q n 4X(.L.@ X.t.&.% oX",
" X* R ,.( @ Q.Q.: u S.m.C.#.@ 7.wXj 6 :.&.e V 6X(.L.$ X.t.&.&  X",
"oX* Y >.F & H.'.^.@ a F.2.c.! . d.^ 8 7.4.8 x 5X(.J.$ o.w.$.= +X",
"=X% W :.` $ A._.7X( . p b.c.A.Q # = t O.q.> N 5X(.H.# O.w.$.* #X",
">X* Y :.P # I.(.8Xl < & p Z.w.C.` X a ;.4.w b 4X(.L.# O.p.&.& XX",
"[.= Y *.` $ I._.4XM t 6.$ p C.i.G.Q + b t., b 6X(.H.$ X.y.=.* XX",
"oX= R *._ $ H.).2Xm w 0.` + h S.i.C.` X F i l 8X(.I.# +.y.%.& #X",
"oX* R *.] % H.(.8Xm < 5.0.a . h D.y.C.W # $ H 3XU.I.%  .g.%.& XX",
"oX& Y *.^ $ H.(.4Xn e =.o.8 h 8 e G.v.b.| . m 9XU.b.* o.0.=.= @X",
" X* Y *.^ # A.(.6Xd e =.q.e A 7X& s v.2.F.| X 8.].A.4 o.t.| * /.",
" X* Y ,._ $ H.(.4Xn 0 :.=.w j qX~.: s G.i.m.T X t.|.X X.t.! 4 oX",
"oX= Y *._ $ H._.4Xn w 5.t.w m 7X3XW . u F.x.C.R X 3.2 { p.$.% oX",
"#X= W -.' $ J._.8XM 0 5.=., m 3X8Xl > : p C.s.b.! . + O.y.&.%  X",
"#X* W -.( @ J._.8Xl 0 8.-.r l 4X3XM t 4.+ y G.r.C.U X 6.9.&.=  X",
"+X* Q 8.( $ I.'.9Xn q 5.>.q V 8X4XM , k.[ @ s G.n.y.& X.z.3.& #X",
"+X* ( a _ $ m.P.^.j 0 ..| 6 z ^.^.d < 3.' ' + s a.=.$ +.k [ - }.",
"-XO D c c   % # $ # . X o . # + + $ X # + $ $ . + % X c x _ ; <X",
"OX5  ./ . g D L D P ~ / D L ~ F E A / D / D / F P D g . ..6.; =X",
"$X* j . S y i &.W ` ` [ ` ` %.W W W ( ` ` ) %.) &.e a G . G > #X",
"~.& . j ( x A N S B M S S N M H H S L A H M H F S C x ~ j . %  X",
"&X9 o * & % * * % = = % % * & & & & * * & = % * % = % % ; O 4 .X",
"1XoX-XXX#XoXoX X%X#X%XXXXX-X+X#X#X$XoXOX#X+XoX@X@X+X#X<X;XXX&X*X"
};
