/* XPM */
static char *_3532_3c0670ebf8610f1f2e7f43e605c2019c383eaf327512626bee6bde743ed899d7[] = {
/* columns rows colors chars-per-pixel */
"32 32 178 2 ",
"   c #68192E",
".  c #6D1C33",
"X  c #6F1F3B",
"o  c #711E38",
"O  c #70372C",
"+  c #6F2136",
"@  c #6E203A",
"#  c #712237",
"$  c #792F30",
"%  c #71233C",
"&  c #78233A",
"*  c #76293B",
"=  c #753536",
"-  c #7D3434",
";  c #7E333B",
":  c #7C3A3A",
">  c #7F463F",
",  c #7B4332",
"<  c #7E3245",
"1  c #7B3841",
"2  c #822C2D",
"3  c #8A2F3E",
"4  c #853430",
"5  c #8F3A37",
"6  c #87373A",
"7  c #89353A",
"8  c #823A3B",
"9  c #8B3B3A",
"0  c #903635",
"q  c #913937",
"w  c #913938",
"e  c #834135",
"r  c #8D4C33",
"t  c #89433B",
"y  c #974635",
"u  c #9E4734",
"i  c #934C36",
"p  c #994E37",
"a  c #96413A",
"s  c #9D463D",
"d  c #934F39",
"f  c #9B4D3A",
"g  c #935139",
"h  c #9A563C",
"j  c #9C593E",
"k  c #A54D3E",
"l  c #A2543D",
"z  c #AF503E",
"x  c #833442",
"c  c #853840",
"v  c #863949",
"b  c #84354A",
"n  c #8E4441",
"m  c #9C4742",
"M  c #9A4D47",
"N  c #984E4F",
"B  c #8D5A49",
"V  c #905744",
"C  c #9D5640",
"Z  c #945F40",
"A  c #92574C",
"S  c #92584A",
"D  c #985D4F",
"F  c #9C514B",
"G  c #A24742",
"H  c #A64D44",
"J  c #AA4E46",
"K  c #A84F49",
"L  c #B14E44",
"P  c #A35141",
"I  c #A95145",
"U  c #A15941",
"Y  c #A1524B",
"T  c #AF594A",
"R  c #A85848",
"E  c #BA5744",
"W  c #B75B44",
"Q  c #BE5C4A",
"!  c #BF5D50",
"~  c #9E6645",
"^  c #9F6452",
"/  c #966554",
"(  c #AC6244",
")  c #A06C47",
"_  c #AA694D",
"`  c #B06D52",
"'  c #A97150",
"]  c #B17457",
"[  c #B9775F",
"{  c #B67A58",
"}  c #B07F70",
"|  c #C47759",
" . c #C57B5D",
".. c #ECAA3D",
"X. c #F0AA3B",
"o. c #AE825F",
"O. c #BB835E",
"+. c #BC8B6B",
"@. c #B99072",
"#. c #BD9478",
"$. c #BFB26C",
"%. c #BDAC77",
"&. c #BDAE7B",
"*. c #B7B47D",
"=. c #BEB37D",
"-. c #BDB574",
";. c #DDAD4B",
":. c #D9AC5B",
">. c #D9B152",
",. c #DAB35C",
"<. c #EDAC43",
"1. c #E3AE48",
"2. c #E8B04F",
"3. c #E4AD53",
"4. c #C08F6F",
"5. c #C49574",
"6. c #C59E75",
"7. c #CB9E77",
"8. c #C59C7C",
"9. c #CCAE6D",
"0. c #DDAE62",
"q. c #CFB465",
"w. c #CBB36B",
"e. c #D8B86B",
"r. c #C5A576",
"t. c #C6AC73",
"y. c #CDAD72",
"u. c #C6A67B",
"i. c #CAA57A",
"p. c #C3AE7D",
"a. c #C9AD7D",
"s. c #D3A47D",
"d. c #D3AC71",
"f. c #C3B374",
"g. c #CBB574",
"h. c #C2B27E",
"j. c #CDB179",
"k. c #C0B87A",
"l. c #D9BB79",
"z. c #D5B272",
"x. c #E3B665",
"c. c #E2BA65",
"v. c #FFC255",
"b. c #FFC65D",
"n. c #E5C16D",
"m. c #FCC666",
"M. c #F2C866",
"N. c #FACB66",
"B. c #F2CC6B",
"V. c #FFD26B",
"C. c #EEC97B",
"Z. c #FECF73",
"A. c #F4CE7B",
"S. c #BAAD80",
"D. c #B7B781",
"F. c #BDB381",
"G. c #BDB880",
"H. c #BFB18F",
"J. c #D29986",
"K. c #C9A681",
"L. c #C5AF83",
"P. c #CBAE81",
"I. c #CCAC8A",
"U. c #C1A283",
"Y. c #D7AD83",
"T. c #DEAC87",
"R. c #D0A68E",
"E. c #D9A888",
"W. c #C3B282",
"Q. c #CCB384",
"!. c #C3B982",
"~. c #C8B982",
"^. c #C3B48A",
"/. c #CEB28B",
"(. c #D1B58C",
"). c #D6B387",
"_. c #C0AF91",
"`. c #D9B696",
/* pixels */
"h.j.h.h.=.G.=.G.=.W.h.h.a.h.=.W.F.W.W.h.W.W.W.W.=.W.W.h.W.W.W.h.",
"h.h.h.=.W.=.F.=.=.p.a.W.Q.W.=.=.h.W.h.W.h.h.h.W.h.h.h.h.h.h.h.W.",
"L.h.h.h.h.h.h.W.h.W.Q.p.p.p.W.W.h.h.h.h.p.h.=.h.W.h.h.h.h.h.h.h.",
"W.h.h.W.W.W.h.a.W.a.W.W.W.~.W.W.h.h.h.k.h.f.h.h.h.&.&.h.h.h.h.h.",
"L.W.F.F.=.G.=.F.a.h.W.F.F.F.G.F.=.&.h.=.p.=.h.h.h.h.W.h.h.h.h.p.",
"L.W.W.W.=.G.F.=.W.W.W.W.F.^.^./.(.Q.(.Q.Q.Q.(.Q.Q.(.Q.Q.W.P.a.Q.",
"W.W.W.L.h.h.h.h.h.=.L.W./.i.5.+.+.+.+.+.+.+.+.+.+.+.+.+.4.+.5.E.",
"F.W.P.a.h.h.h.=.h.W.Q.u.o.Z i d i d i d i g i g g g i d g r h [ ",
"G.=.a.a.j.p.=.h.a.a.Y.~ r C f P C P k l H C k k P P P P l k l H ",
"*.^.P.Y.Y.Y.Q.Q.).T._ p l f H k k k k k k k k k k k k k H k k k ",
"=.a.O. .| | { ' ] ` p H J J J H H k k k k k k k k k k k k k k k ",
"h.r.( W z | l p p y J H s J G K k k k k k k k H k k k k k k k k ",
"P.s.z Q Q Q T M H K K m Y F M Y H H H H H H H H H H H J H H H H ",
"P.7.l z z T s 5 q 0 w 9 n 8 9 9 5 5 0 9 w 5 w 5 w q q w q 5 q 5 ",
"Q.6.h k k J a 4 w 2 9 9 - - 7 0 7 6 6 6 7 7 6 6 6 6 6 6 6 6 6 6 ",
"W.i.) j l R g e e t - 8 8 c 7 7 x x x x x x x x x x x x x x x 8 ",
"W.h.j.r.i.K.K.U.K.8., : *   & . o X X X . X X X X X + % . + b < ",
"j.h.g.f.j.p.^.^.^./.@.O 1 < * % o % % % < o X X   < @ @ + * < v ",
"t.l.n.0.z.i.L.~.h.%.L.#.n = = - - 8 ; ; 8 ; < 8 < * ; - 8 - - N ",
"9.C.m.1.,.d.a.p.W.~.F.`.R.o./ B A S S S A A A A A A D A A V ^ J.",
"c.Z.b...2.x.a.P.L.&.~.%.W.(.`.I.I./././.I.(.(.I./.Q././.(./.Q./.",
"M.V.v...<.>.y.W.F.^.h.h.=.h.u.L.W.=.h.=.W.F.W.S.F.W.&.=.&.%.W.=.",
"N.V.v.....;.9.h.S.~.p.h.G.*.h.W.h.=.h.=.=.=.h.=.^.&.=.h.W.k.h.=.",
"B.V.b...1.>.w.F.^.L.h.h.=.=.!.=.h.=.=.h.h.=.F.h.&.~.W.=.h.h.=.=.",
"e.A.m.2.:.q.t.-.h.P.L.W.W.W.=.h.=.h.h.h.F.h.W.h.F.F.W.=.h.h.W.=.",
"t.l.x.:.q.f.-.-.h.P.L.L.L.W.=.=.h.=.W.h.W.F.W.F.W.W.W.F.W.F.W.F.",
"p.a.y.y.j.k.*.-.h.P.P.L.L.h.j.f.h.W.h.W.h.h.h.h.h.h.h.h.p.h.a.F.",
"^.L.L.^.F.F.G.=.h.a.P.P.W.h.=.f.h.h.h.h.W.h.W.h.L.h.h.W.W.W.h.h.",
"W.S._.H.F.=.F.=.p.W.P.a.=.f.h.h.k.=.h.h.h.h.h.h.h.=.h.=.h.=.h.h.",
"a.^.^.H.F.=.W.W.h.h.L.h.=.=.h.a.h.h.F.h.F.h.=.h.h.h.h.=.h.h.h.=.",
"h.g.h.h.F.L.W.a.a.W.G.F.G.F.L.=.W.h.W.h.=.h.h.h.W.h.h.W.h.h.W.h.",
"g.f.-.h.F.^.P.P.L.=.D.D.G.^.^.W.W.W.W.W.W.W.W.W.h.h.h.W.h.W.h.h."
};
