/* XPM */
static char *_2261_f7bd9234e6667393d0a17b0602885c263060c42c98dc0b5a3ef660a8e2a55e17[] = {
/* columns rows colors chars-per-pixel */
"32 32 217 2 ",
"   c #0C0200",
".  c #150100",
"X  c #1C0300",
"o  c #160800",
"O  c #1D0A00",
"+  c #1E1300",
"@  c #220401",
"#  c #2A0101",
"$  c #250A00",
"%  c #2B0B01",
"&  c #2A0D09",
"*  c #300000",
"=  c #3A0000",
"-  c #330E03",
";  c #3A0800",
":  c #340609",
">  c #2E1103",
",  c #271906",
"<  c #321502",
"1  c #331509",
"2  c #341B0D",
"3  c #39190A",
"4  c #3D1B15",
"5  c #381612",
"6  c #3D300D",
"7  c #3B2C1B",
"8  c #3C2515",
"9  c #3E391B",
"0  c #400C01",
"q  c #44160C",
"w  c #42180A",
"e  c #471714",
"r  c #511612",
"t  c #482915",
"y  c #572D1F",
"u  c #45331B",
"i  c #492722",
"p  c #5C2B23",
"a  c #522E20",
"s  c #4C3727",
"d  c #4E3F25",
"f  c #583A34",
"g  c #573A2C",
"h  c #6B3A34",
"j  c #673E3C",
"k  c #763E3D",
"l  c #69392D",
"z  c #5F452C",
"x  c #5C492A",
"c  c #534824",
"v  c #6B4235",
"b  c #644A32",
"n  c #6C4238",
"m  c #614A3A",
"M  c #78433F",
"N  c #6D5B3E",
"B  c #7C5E38",
"V  c #696234",
"C  c #7B3E43",
"Z  c #644C42",
"A  c #6E5748",
"S  c #775547",
"D  c #7B6A4A",
"F  c #6A6150",
"G  c #796857",
"H  c #7E7B5C",
"J  c #944C4F",
"K  c #875049",
"L  c #81595A",
"P  c #905652",
"I  c #8F6D48",
"U  c #8A6551",
"Y  c #88695C",
"T  c #81725C",
"R  c #8A7857",
"E  c #896A66",
"W  c #936B63",
"Q  c #976D69",
"!  c #8C796A",
"~  c #A56766",
"^  c #A57368",
"/  c #A87B75",
"(  c #AB7B7B",
")  c #BC7D7D",
"_  c #B47D78",
"`  c #9E856B",
"'  c #9B8A68",
"]  c #9D9161",
"[  c #968A77",
"{  c #9D8175",
"}  c #A58563",
"|  c #A48E6D",
" . c #A88A68",
".. c #A2936C",
"X. c #A79B6B",
"o. c #A58E71",
"O. c #AD867D",
"+. c #BF847D",
"@. c #A49371",
"#. c #A89678",
"$. c #B19774",
"%. c #BBAD76",
"&. c #B1AA79",
"*. c #BCAD7B",
"=. c #B6A972",
"-. c #BEB276",
";. c #BDB27C",
":. c #C2AD76",
">. c #C1AD7C",
",. c #CBAE7D",
"<. c #C3A77F",
"1. c #C1B276",
"2. c #C3B27D",
"3. c #CAB37D",
"4. c #C3B97C",
"5. c #C8B97E",
"6. c #AD8A81",
"7. c #B68F88",
"8. c #B69E86",
"9. c #AFA282",
"0. c #B6AB84",
"q. c #BCAD83",
"w. c #BDAE8A",
"e. c #B8A386",
"r. c #BDB383",
"t. c #BEB983",
"y. c #B6B18B",
"u. c #BCB48A",
"i. c #B6A196",
"p. c #BDB997",
"a. c #BFA8A0",
"s. c #C58985",
"d. c #CC9592",
"f. c #CA9B98",
"g. c #DC9C96",
"h. c #D89795",
"j. c #E59C97",
"k. c #EB9C9C",
"l. c #EC9896",
"z. c #F19E9A",
"x. c #C2AE83",
"c. c #C9AE82",
"v. c #C3AB8B",
"b. c #C3B383",
"n. c #C9B383",
"m. c #C4B983",
"M. c #C9B984",
"N. c #C4B48B",
"B. c #CBB58B",
"V. c #C5BB8C",
"C. c #CABA8D",
"Z. c #D4BA8B",
"A. c #C2A59B",
"S. c #C6A894",
"D. c #D4A49D",
"F. c #DEA39E",
"G. c #DFA99F",
"H. c #D7A296",
"J. c #C2B59A",
"K. c #CEBB9C",
"L. c #C7BA93",
"P. c #E4A49C",
"I. c #ECA49C",
"U. c #E2A296",
"Y. c #F3A59E",
"T. c #F9A49C",
"R. c #F5AA9D",
"E. c #FAA89C",
"W. c #EE9FA2",
"Q. c #E69BA0",
"!. c #CFA8A9",
"~. c #D3AAA3",
"^. c #DCAAA6",
"/. c #DDACAA",
"(. c #DBA5A5",
"). c #C4BDA0",
"_. c #D7B7A8",
"`. c #DEBDB4",
"'. c #E5A3A5",
"]. c #EDA4A3",
"[. c #E3ABA3",
"{. c #ECABA3",
"}. c #EBADAB",
"|. c #F4A5A3",
" X c #F9A6A4",
".X c #F4ABA4",
"XX c #FBAAA4",
"oX c #F7A7AA",
"OX c #F3ACAA",
"+X c #FAA9AA",
"@X c #E3B1A3",
"#X c #EBB3AC",
"$X c #EAB4AB",
"%X c #F3B3AD",
"&X c #EDBBB4",
"*X c #EBBBBB",
"=X c #EAB5B5",
"-X c #F3B5B4",
";X c #F3BAB4",
":X c #F4BCBA",
">X c #FBB5B7",
",X c #CCC08D",
"<X c #D4C08D",
"1X c #C6C295",
"2X c #CCC094",
"3X c #CDC19B",
"4X c #D5C89A",
"5X c #D2C3A1",
"6X c #DECAAF",
"7X c #DBD3AC",
"8X c #C8C3A5",
"9X c #E0C8AE",
"0X c #EFC2BC",
"qX c #F4C2BD",
"wX c #FEC1BC",
"eX c #F1C6B5",
"rX c #F4C0C2",
/* pixels */
"4.%.c.<.3.3.>.c.;.n.x.x.b.2.-.1.1.2.2.2.2.b.>.2.b.r.q.r.n.x.b.b.",
"-.2.b.2.b.b.n.*.m.*.x.B.>.1.4.-.4.2.b.2.2.2.b.2.*.;.m.*.q.*.q.n.",
"3.b.*.m.x.q.;.m.*.v.r.q.N.N.*.4.;.2.-.2.2.2.2.2.n.%.;.4.M.5.:.*.",
"x.2.r.r.r.r.4.-.n.x.r.t.u.x.b.>.;.;.r.*.r.>.x.x.2.n.m.;.=.-.2.2.",
"4.;.;.%.*.2.1.1.1.%.t.V.N.B.Z.B.B.C.N.C.C.C.C.C.B.V.;.;.5.-.-.-.",
";.m.L.4X2XC.b.2.,XC.t...| #. . .o.o.o.o.o.o.o.o...$.B.C.m.;.m.;.",
"L.@.c d c F 9.5X' 7 $ 1 > > % 3 - < - - : - - - - % < b e._.0.N.",
"3XD O m f 2 2 s X A a.!.f././.!.^.^././././.[./.@Xf./ a X | ).w.",
"L.' % D.^.g.5 5 !.qXG # C >X}.%X%X.X.XOXOX%XOXOX}.-XeX&XU X ` K.",
"*.B.t 3 _ C e *X=Xe : ( '.'.+X.X|.|.R.|.|.|..X.XOXI.{.[.eXU < S.",
"t.N.c.z X X d.=Xi f rX>XqX#X.X.X|.XXXX.X.X XoX.XoX.X%Xs.W _.8 A ",
";.*.x.6XZ f :XQ X W d.+.h p {..XR. X.X.X.X.X.X.X].>X) # # Z ! , ",
";.t.N.e.$ 6.-X}.Q e ; ; p +..X|..X.X.X{.R..X.X.X.XoX~ S O.5 i.o ",
"t.&.3XS p =X;X}.#XOXP.G.wX%XXX X.X.X{..XXXXX.XY.I.k.k.=X( - G o ",
"&.1XN.- _ >Xd.{..XR.$X#XR.XXXX|.oX|.|. X|.|.T.|.z.k.].'.!.C & @ ",
"y.@.% l wXs.r '..XI.R..X X|. X+XoXoXXXXX|.|.|. Xz.z.k.W.'.*XE & ",
"+ o S }.%X}.F.{.R.E.E.XXoX+XoXoXoX+X+X Xl.|.h.J Q.W.|.k.W.}.S 7 ",
"  !.qX}.'.'.}.{..XE.T.XX|.}.oX.X.Xk.z.z.I..Xh.= ) -Xk.z.l.-Xi F ",
". ! d.[.:X:X;X-XXXE.E.XX].I.R.R.j.I.Y.U.U.H.%XK e (.%Xj..XF.2 [ ",
"s 1 < * q p v ^ ]..X%XU.$X&XP.P.I.P.j.P.@X@X$XH.$ $ ^ ;XP.G.4 [ ",
"L.N.&.| R V x $ P -X/ % 4 E 7./.$X$X$X/.A.O.v @ u T X n #X#Xt G ",
"b.b.r.1XV.L.7Xm h rXi f G 2 < * q t 8 > % @ t R J.).J.< h qXY O ",
"<.v.w.u.r.0.3Xz h =X& ! 9XK.$.} I B B R  .w.4XN.u.y.8X7 v 0Xg 7 ",
"n.c.u.q.n.b.3Xx n /.O #.v.x.c.Z.Z.Z.<XC.C.b.<.m.r.1XH + `.W $ A.",
"2.4.r.;.>.2.4Xc b 6., p.y.r.m.*.*.;.b.q.r.r.b.x.r.u., T i.X { _.",
"-.-.4.2.3.:.t.V . O 9 1Xr.b.*.n.;.r.x.v.r.r.c.x.n.N.6 O . N 5Xe.",
"4.-.n.:.,.3.m.&...' y.u.t.b.%.4.r.r.x.n.x.b.3.3.:.3.%.] X.n.x.n.",
"*.;.M.>.,.,.-.V.C.C.u.*.n.%.5.-.t.r.n.x.b.;.3.>.3.:.m.m.m.M.1.>.",
"q.r.3.b.c.n.*.x.m.c.%.M.3.:.2.4.;.r.2.>.>.2.r.;.c.c.=.m.>.>.b.r.",
"n.n.*.>.x.n.N.b.%.4.*.>.b.b.-.;.;.m.2.3.4.4.r.b.x.x.m.r.b.>.b.r.",
"x.m.b.m.r.q.b.*.5.1.3.n.n.q.t.r.b.2.>.2.;.;.r.b.N.q.-.2.2.3.;.t.",
"n.q.*.t.t.b.b.b.1.2.2.:.x.u.r.r.x.3.,.1.;.;.b.r.r.t.3.1.3.%.t.t."
};
