/* XPM */
static char *_086_abda1a0fde1de0c9f110b134576f2c7305cade842cfe0a4058d186c16fc9f18b[] = {
/* columns rows colors chars-per-pixel */
"32 32 218 2 ",
"   c #0B0000",
".  c #020A00",
"X  c #140100",
"o  c #1C0200",
"O  c #170D00",
"+  c #1C0E00",
"@  c #120E0B",
"#  c #0F1401",
"$  c #031505",
"%  c #1C1201",
"&  c #1B1502",
"*  c #0C1913",
"=  c #171C18",
"-  c #2B0D01",
";  c #220905",
":  c #320D00",
">  c #2B1402",
",  c #241C00",
"<  c #271708",
"1  c #311902",
"2  c #351F11",
"3  c #17200D",
"4  c #08221F",
"5  c #13201E",
"6  c #192717",
"7  c #13301C",
"8  c #282208",
"9  c #312204",
"0  c #3D240C",
"q  c #38290B",
"w  c #2A2213",
"e  c #2C2417",
"r  c #362513",
"t  c #3E391E",
"y  c #3A331B",
"u  c #041C26",
"i  c #001A31",
"p  c #161B21",
"a  c #042A2A",
"s  c #0A2526",
"d  c #0B302C",
"f  c #002435",
"g  c #082935",
"h  c #133034",
"j  c #1B2A27",
"k  c #252429",
"l  c #2D2E32",
"z  c #2F3C38",
"x  c #393933",
"c  c #303827",
"v  c #43301A",
"b  c #493517",
"n  c #59361F",
"m  c #52391A",
"M  c #60381F",
"N  c #453A28",
"B  c #553930",
"V  c #39492F",
"C  c #56431B",
"Z  c #584C29",
"A  c #59522F",
"S  c #46473C",
"D  c #574A33",
"F  c #5B553A",
"G  c #6B4734",
"H  c #635733",
"J  c #645C3C",
"K  c #6A583D",
"L  c #78563D",
"P  c #654A29",
"I  c #6B633B",
"U  c #67623E",
"Y  c #0D3443",
"T  c #243D41",
"R  c #394A46",
"E  c #144F61",
"W  c #20697C",
"Q  c #504C43",
"!  c #595E4A",
"~  c #55584B",
"^  c #655442",
"/  c #695A46",
"(  c #765746",
")  c #7A5D56",
"_  c #744940",
"`  c #686648",
"'  c #7C6C4C",
"]  c #736549",
"[  c #797545",
"{  c #6E6053",
"}  c #716956",
"|  c #777055",
" . c #7C745A",
".. c #595E61",
"X. c #51737D",
"o. c #476774",
"O. c #72736E",
"+. c #83673F",
"@. c #845C54",
"#. c #866C45",
"$. c #8B775A",
"%. c #857758",
"&. c #806456",
"*. c #8F6F62",
"=. c #877C60",
"-. c #778065",
";. c #87815D",
":. c #8C8267",
">. c #9B8D6B",
",. c #938666",
"<. c #9F936B",
"1. c #878776",
"2. c #8D9071",
"3. c #959879",
"4. c #AE976E",
"5. c #A59977",
"6. c #B19D7C",
"7. c #A38772",
"8. c #BCAC74",
"9. c #BCAE7C",
"0. c #B7A47A",
"q. c #BCB176",
"w. c #BDB37D",
"e. c #B5B27D",
"r. c #ACA47D",
"t. c #C4AF76",
"y. c #C3AE7C",
"u. c #C9AE7D",
"i. c #C3B277",
"p. c #C3B27D",
"a. c #CAB37D",
"s. c #C3B97E",
"d. c #1F7280",
"f. c #287C96",
"g. c #537E8F",
"h. c #309DBE",
"j. c #3F85A7",
"k. c #52889F",
"l. c #768589",
"z. c #7B9698",
"x. c #4E9CBD",
"c. c #5394B4",
"v. c #5B9CB6",
"b. c #5D93B4",
"n. c #4F8FAB",
"m. c #6193B5",
"M. c #6B9CAB",
"N. c #59A1BA",
"B. c #71A4B5",
"V. c #3F9ED0",
"C. c #379FD2",
"Z. c #3799C0",
"A. c #3AA3C8",
"S. c #499CC8",
"D. c #539DCA",
"F. c #429ED1",
"G. c #43A4CA",
"H. c #47A5C7",
"J. c #50ABCA",
"K. c #67A7C2",
"L. c #9D9A82",
"P. c #8B9084",
"I. c #A19390",
"U. c #A98D81",
"Y. c #94A092",
"T. c #A6A485",
"R. c #ACA58B",
"E. c #A9A788",
"W. c #BCAE83",
"Q. c #B7AD89",
"!. c #BDB384",
"~. c #BCB38B",
"^. c #B9B783",
"/. c #B9A19F",
"(. c #B0B093",
"). c #959CA2",
"_. c #8FA3AD",
"`. c #B6AEA1",
"'. c #A9B9AF",
"]. c #C3AD83",
"[. c #C6A987",
"{. c #C3B283",
"}. c #CAB483",
"|. c #C3B48A",
" X c #CBB48C",
".X c #C4BA8B",
"XX c #CABB8D",
"oX c #C8B883",
"OX c #D2BE8B",
"+X c #C2B690",
"@X c #C4BC93",
"#X c #CBBD92",
"$X c #C5BA99",
"%X c #CABC9A",
"&X c #C9B79A",
"*X c #D3BD94",
"=X c #CBC18D",
"-X c #C3C38D",
";X c #CBC194",
":X c #CBC39B",
">X c #C8C398",
",X c #D6C397",
"<X c #D4C5A2",
"1X c #D9CAA3",
"2X c #D5D2B3",
"3X c #CAC1B2",
"4X c #B2C0CB",
"5X c #A2C3CA",
"6X c #B7DCE4",
"7X c #E6DACC",
"8X c #FCEBDA",
"9X c #F0E4D8",
"0X c #EFE5DB",
"qX c #C7D7E6",
"wX c #CFE2F0",
"eX c #FFEFE2",
"rX c #FFF9EB",
"tX c #FFF8E2",
/* pixels */
"{.{.!.w.i.p.{.].{.|.y.a.t. X( X ; o ' |.w.s.w.{.{.].].{.p.w.w.!.",
"{.].p.w.i.p.].}.].{.p.t.].[.> ( ) B 1 |.{.w.{.w.{.{.{.y.p.{.w.w.",
"~.{.p.p.p.p.{.].u.}.u.}. X6.> *.@._ : [.].9.{.i.{.].{.w.p.p.{.!.",
"{.!.i.i.p.!.|.{.{.p.9.9.|.,.> &._ G - 7. X!.s.w.!.{.{.{.i.i.p.{.",
"p.p.p.p.p.!.!.{.9.w.#XI , & O e < 2 X < < ` .Xw.!.].].{.i.i.{.!.",
"p.p.p.p.{.!.!.!.|.!.W.@XA   `.0X7X0XI.X ^ @X!.w.{.{.{.p.i.w.!.!.",
"i.p.p.!.{.{.].p.9.!.#X[ 9 w 3XrX9XeX`.; 2 *.}.u.].].a.p.i.w.!.!.",
"i.p.!.{.{.].p.p.{.!.XXb $./ ^ rXeX8XB ) K m *Xt.t.a.p.i.s.w.s.!.",
"w.w.!.!.{.p.}.t.y.{. X#.- m X r ] 9   v + ;..Xi.p.i.i.{.{.p.}.].",
"p.w.!.{.W.}.8.}.u.9.9.,X5.#.,.*.}  .:. .5.$X!.w.q.i.{.8.{.p.}.a.",
"w.{.t.p.{.9.XX X#X#X1X5.N O.Q x S x ~ O.N R.:X!..Xw.9.{.{.t.u.{.",
"w.{.t.i.oX~.|.;.A U U w ! * ..).l.l.Q 6 S e :.~.|.e.{.w.{.{.9.i.",
"{.p.i.s.w.XX;., ` A F # '.R 4XwXX.6Xz.R L.$ t 8 >.@X!.{.9.p.{.i.",
"{.{.p.i.w..X,., J T.2X! 6 5 ).qX_.5Xz.* = ` 2X%.+ <..Xe.p.i.w.{.",
"!.{.!.w.oX{. X>.9 K :XQ.| O = k l p $ w =.~.0.1X%.q !.oXs.8.{.{.",
"{.W.{.{.9.y.].1XH K ;XW.:Xt x p O.= k x <X{.}.].%Xq ,..Xq.s.{.{.",
"~.!.|.{.].{.p.XXA U @X^.E.5 s f f f i u E.oX!.].*XC [ -Xw.w.p.{.",
"|.!.W.{.{.9.t.,XZ U ;X>X~ h B.v.c.c.n.Y ` .X|.[.}.6.e.w.w.oXp.p.",
"8.{.s.q.a.t.u.,XA ! :X$Xc o.N.x.D.S.S.E V -XW.|.[. X{.!.{.t.u.}.",
"a.i.8.w.oXp.}.,XJ F ,X(.j g.x.H.G.S.Z.W c @X~.W.u.y.q.w.!.{.}.].",
"a.u.{.p.q.p.0.7.v { #X(.s k.J.A.Z.H.Z.d.7 ^.~.{.p.i.i.s.w.^.!.!.",
"u.t.{.w.oX=X' X   { ,XT.a n.H.A.G.A.A.f.7 E.!.{.w.8.i.p.!.w.!..X",
"i.p.{.!.e.=X| w e { <X3.a N.S.V.F.F.C.f.4 E.$X~.oXw.a.p.w.{.{.9.",
"p.{.{.!.w.;X} < k ^ 1X2.d N.D.D.J.S.F.j.s L.$XQ.!.{.u.p.{.9.y.{.",
"p.oXW.|.w.#X| w e / ,X;.d M.b.m.b.b.c.k.5 1.%XW.{.{.p.p.{.].a.u.",
"{.!.~.~.9.@X]      .1X[ $ h i g s g f g . ,.@X].{.{.{.{.u.p.{.p.",
"y.].|.W.,X4.0 v Z .Xt.9.r.1.5 1.(.O.= P.E.!.w.a.].{.w.w.{.p.p.{.",
"u.{.{.|.}.#.n ( A ;X8.OXZ O & R.>X5.& & A .Xi.t.p.{.!.w.{.{.y.p.",
"t.oXw.e.OX+.P G H oXw. Xv D < 5.-X<.& N y -X!.w.{.{.!.{.y.p.u.u.",
"a.t.w.{.,X+.M +.Z >X{. Xb ^ q 5.;X<.2 N N ~.w.s.].{.s.w.{.p.y.a.",
"t.{.9.!. X#.n G P :XQ.&Xr ; & r.@X4.- o y $Xe.w.a.].{.!.^.w.p.p.",
"{.9.|.!.&X$.; ; K &X&XH > / 5.~.].+XU./ , I =Xi.].{.w.!.e.w.i.i."
};
