/* XPM */
static char *_3291_c4454748412845da2792e32a87afc3f62cfcc1ee9651850753bd503955f61704[] = {
/* columns rows colors chars-per-pixel */
"32 32 218 2 ",
"   c #270B00",
".  c #291501",
"X  c #341500",
"o  c #2B1E15",
"O  c #371F15",
"+  c #2D2206",
"@  c #382408",
"#  c #29241B",
"$  c #352217",
"%  c #342C23",
"&  c #3E382A",
"*  c #4C290C",
"=  c #492109",
"-  c #4C350E",
";  c #55390F",
":  c #422214",
">  c #492919",
",  c #533412",
"<  c #56341A",
"1  c #593419",
"2  c #5D3E1C",
"3  c #583B17",
"4  c #5A2E11",
"5  c #633B1D",
"6  c #633714",
"7  c #412D20",
"8  c #463129",
"9  c #4C3C2F",
"0  c #51382A",
"q  c #463E31",
"w  c #5F411F",
"e  c #65431E",
"r  c #49412C",
"t  c #5D4C22",
"y  c #594626",
"u  c #484635",
"i  c #544838",
"p  c #644623",
"a  c #6A4523",
"s  c #644A24",
"d  c #6A4C29",
"f  c #60412D",
"g  c #73472D",
"h  c #714C2D",
"j  c #7A4424",
"k  c #6C542D",
"l  c #635A2C",
"z  c #685A2B",
"x  c #73532D",
"c  c #6E4831",
"v  c #7E4E36",
"b  c #744833",
"n  c #695A31",
"m  c #755634",
"M  c #795435",
"N  c #7C5539",
"B  c #7C5C3B",
"V  c #795938",
"C  c #7D633A",
"Z  c #5C5346",
"A  c #544943",
"S  c #685D49",
"D  c #635D47",
"F  c #735E41",
"G  c #615C59",
"H  c #7A6446",
"J  c #696759",
"K  c #776A58",
"L  c #666249",
"P  c #7F6C66",
"I  c #80562E",
"U  c #874F34",
"Y  c #835534",
"T  c #85553D",
"R  c #8C553A",
"E  c #835B3C",
"W  c #895B3D",
"Q  c #885836",
"!  c #935434",
"~  c #9B543A",
"^  c #905B3C",
"/  c #9B5C3E",
"(  c #864A28",
")  c #A65B3E",
"_  c #80633E",
"`  c #8A673D",
"'  c #98623D",
"]  c #815644",
"[  c #845A42",
"{  c #8A5C48",
"}  c #975E44",
"|  c #9E5D42",
" . c #935E49",
".. c #A45940",
"X. c #A95D44",
"o. c #836343",
"O. c #8B6445",
"+. c #856A45",
"@. c #8B6A45",
"#. c #8A684A",
"$. c #966143",
"%. c #9A6144",
"&. c #9F6945",
"*. c #93624A",
"=. c #9C634B",
"-. c #9B6B4F",
";. c #916C4C",
":. c #8E754A",
">. c #896555",
",. c #946A53",
"<. c #9A6A52",
"1. c #9A6651",
"2. c #82785C",
"3. c #927C54",
"4. c #9C7B56",
"5. c #9D7E5B",
"6. c #9A7556",
"7. c #937247",
"8. c #A3644A",
"9. c #A86749",
"0. c #A56C51",
"q. c #AB6953",
"w. c #A57757",
"e. c #956D61",
"r. c #987962",
"t. c #978458",
"y. c #8B8956",
"u. c #A7855F",
"i. c #988865",
"p. c #988E78",
"a. c #9A9669",
"s. c #A28B64",
"d. c #A58D69",
"f. c #B38D6C",
"g. c #AC936C",
"h. c #A89668",
"j. c #B1926E",
"k. c #B9926D",
"l. c #B39A6A",
"z. c #A98F76",
"x. c #AD9674",
"c. c #AE9C76",
"v. c #B39670",
"b. c #B49E73",
"n. c #BD9C7A",
"m. c #BA9A7C",
"M. c #B5A572",
"N. c #BBAD76",
"B. c #B1A37A",
"V. c #BBA57B",
"C. c #B5AD7A",
"Z. c #BCAD7C",
"A. c #BAA872",
"S. c #ACB17B",
"D. c #B6B57E",
"F. c #BDB37D",
"G. c #BBB679",
"H. c #A9A576",
"J. c #CA9F7D",
"K. c #C3AD76",
"L. c #C3AD7C",
"P. c #CAAE7F",
"I. c #C4A478",
"U. c #C4B376",
"Y. c #C3B27D",
"T. c #C9B37D",
"R. c #95958B",
"E. c #9C9487",
"W. c #A29D80",
"Q. c #B79B90",
"!. c #B3A380",
"~. c #BCAE82",
"^. c #B8AA81",
"/. c #B6B681",
"(. c #BCB383",
"). c #BCBA83",
"_. c #BAB589",
"`. c #BDB793",
"'. c #B8B9B4",
"]. c #C69E81",
"[. c #C4AE83",
"{. c #CCAC83",
"}. c #CDAE8A",
"|. c #C5A786",
" X c #D0AE8D",
".X c #C3B383",
"XX c #CAB483",
"oX c #C5BA85",
"OX c #CBBB86",
"+X c #C5B58A",
"@X c #CAB48A",
"#X c #C5BA8C",
"$X c #CDBA8B",
"%X c #D1B68E",
"&X c #D1BC8C",
"*X c #D2B385",
"=X c #CDB495",
"-X c #C3B994",
";X c #CCBE93",
":X c #C8B998",
">X c #D3B493",
",X c #D1BA93",
"<X c #D9BA93",
"1X c #DCBA9A",
"2X c #DAB899",
"3X c #C8BFA0",
"4X c #D0C18A",
"5X c #CCC699",
"6X c #D1C295",
"7X c #E9C19D",
"8X c #D0C5A5",
"9X c #CACABE",
"0X c #D4CEC2",
"qX c #E1C8C1",
"wX c #E6DBD5",
"eX c #F5F4ED",
"rX c #FFF6F2",
"tX c #FFFFF8",
/* pixels */
".XY.Y.F.L.Y..X[.[.}.[..XY.Y.A.T.l.l.M.oX[.Y.T.Y.Y..XY.U.U.U..X(.",
".XY..XY.Y..XY..XXX[.Z.[.Y.Y.OX4X:.; t.,XZ.Y.XXK.Y.F.Y.U.T.U.Y.(.",
".X.X.XY.Y.Y.Y.Y.L.XX.XT.P.L.oXt.; , - i.+X[.L.OX(.Y.(.U.K.T.Y..X",
"[..X[..XF.F.Y.Y.Y.T.P.L.L.oXoXt.3.d.y B.+XZ..XN.F.F.Y.Y.T.L..X(.",
"[..X[.Y.F.F.Y.G.Y.K.L.XXY.(.+X#Xi.i.K 5X_._.oXZ.F.D.F.F.U.Y.(.(.",
"+X[..X.X.XG.Y.Y.U.U.Y.oXY.Y.C.-X2.+ & H.-X~.oXY.F.).F.F.Y.F.(._.",
"[..X.X.X.XY.Y.Y.Y.oXG.N.Z.oX+X^.i Z u L `.~.L.U.Y.(.F.Y.Y.F.)._.",
"F.(..X.X[.XX.XY.F..XF.(.+XZ.+XH.u u & D :X+XY.T.Y.Y.F.Y.U.U.(.).",
"G.G.Y.V.J.}.}.|.[.~.~.#XF.~.@Xc.i & q S :X[.K.T.Y.G.Y.XXK.K.XXZ.",
"N.oXXXj.a ].2X2X=X+X_._.F.[.XXm.% i & L -X$XT.K.G.F.oXY.T.T.{.@X",
"G.N.&X4.T 4 = 1 B x.;X~.#X@Xd.F 0 A q K :X(.G.G.(.).D.G.U.XXL.I.",
"G.T.b.e 5 ] *.b *   2 B.=X!.r.S o % # J `.(.N.).D.S./.).L.K.XXoX",
"XXOXC B g ,. .-.w.,.1 X x.r.z.E.E.R.R.p.8X@XOX.X5X_._.)..XN.Z.+X",
"%Xt.d m #.{  .-.%.^ w.N 0 . i 0XrXtX0XZ H @.` 7.3.B.~.V..XOX.X(.",
"].N 1 = O.;.T ' %./ j v N K wXeX'.G # % > =.| ~ Q v h h @.b.+X~.",
"m.* m o.j.f.M j j ( ! 8.F Q.rXG # % 8 : ] 8.X...q.g W O.3 e d.@X",
"@Xt.C {.<XI.*XV ` ' 9.8.{ e.rXG # 8 : b %.8.X.../ ^ ;.3.5 p o.2X",
"(.XXXX*XP.P.%X|.I ' ! / | { qX2.0 0 T *.%.%...) 9.%.@.3.w 2 #. X",
"Z.+XXXA.I.XXV.@X*XI 8./  .{ O 8 >.r.1.=.q.~ X.X.~ ^ w.g.3 p +.=X",
"#XZ.I.XX&X.X~.[.&Xu.( 1.0.] > $ >.<. .R U 8.~ X.q.U k.g.d , H @X",
"F.F.Y.XXN.~.#X~.[.{.w.I <.,.0 . b T Y 0.j R 8.) / } f.|.k p :.+X",
"(.Y.oXN.Z.oX(.+XXX%Xk.6 W 1 @ @ o.k.J.7Xk.4 $.8.8.U 6.2XV +.s ~.",
".XN.XXY..X+X^.#X[.&X$.6 T 1 z.=X>X[.XXV.oXk a R } %.O.1Xu.- n F.",
"Y.N.Y.oXN.).`.^..X{.x e M r.=X~.[..X+XF.oXh.p a g W E j.%Xb.oXY.",
"Y.Y.Y.L..X(.(.(.;Xs.5 _ _ _ >X@XV.oX.XN.D.5Xt.h [ *.B #.@X$XY.F.",
"T.Y.Y..X.X.X(..XoXM.V 5 a _ H b.$XY.G..X).C.[.x T n.m o.@XXXZ.F.",
"U.Y.[.[..X(.Y.F.L.@X[.:.d m   x XXT.L.XXF..XV.5 6.1Xo.C [.F.OXG.",
"P.Y.XX.X[..XU.Y..XXX^.1Xs.d h.l.*XI.XXL.(.+Xv.a ].>Xs.k @XXXM.oX",
".X.X.X[..XY.U.U.U.Z.,X@Xc.s b.OX{.P.P.XXU.+X4.s |.}.C.w s.OX.XN.",
"L.[.(..X.XF.Y.U.U.N.Z.@Xi.n h.$XK..XI..XD.6XC m 2X;XB.l t..XF.F.",
".X.X[..X(.Y.U.U.A.4X+XB.. z #X(.F.+XoXC.5Xl . @X[.V.+ l 6XZ.XXY.",
".X.X(..X(.F.U.U.U.G.~.^.a.B.+XF././.).)./.y.d.~.@XB.a.H.+X[.K.XX"
};
