/* XPM */
static char *_1343_5c5fd37fd9e9c292db8166bc26290c1be2d2cded0232ee0d59ba6a59bf5b238e[] = {
/* columns rows colors chars-per-pixel */
"32 32 212 2 ",
"   c #270F00",
".  c #241401",
"X  c #2B1300",
"o  c #391600",
"O  c #311F13",
"+  c #1F2018",
"@  c #392305",
"#  c #3D310B",
"$  c #2A2216",
"%  c #3C2A1E",
"&  c #372816",
"*  c #2C2A25",
"=  c #3D362A",
"-  c #3C3731",
";  c #492709",
":  c #5B2E0D",
">  c #53350E",
",  c #492915",
"<  c #512F13",
"1  c #47351A",
"2  c #513C14",
"3  c #5A331A",
"4  c #553A19",
"5  c #5C381D",
"6  c #563716",
"7  c #63391C",
"8  c #6D3C1C",
"9  c #42312A",
"0  c #483725",
"q  c #553A26",
"w  c #443B33",
"e  c #663D22",
"r  c #5D411B",
"t  c #68451F",
"y  c #72401D",
"u  c #49422F",
"i  c #5E4728",
"p  c #4A453C",
"a  c #4B4336",
"s  c #554E34",
"d  c #634524",
"f  c #6B4423",
"g  c #6C4C27",
"h  c #6D4A2B",
"j  c #65482A",
"k  c #724322",
"l  c #724C2D",
"z  c #7C452A",
"x  c #6B562A",
"c  c #68582C",
"v  c #7A522F",
"b  c #684A30",
"n  c #724831",
"m  c #7B4D34",
"M  c #7F4F39",
"N  c #6B5331",
"B  c #685C37",
"V  c #765334",
"C  c #7C5436",
"Z  c #7C5B33",
"A  c #755C3A",
"S  c #7F5D3C",
"D  c #77533A",
"F  c #716032",
"G  c #564D45",
"H  c #5B5445",
"J  c #5B5650",
"K  c #655D4A",
"L  c #5F605A",
"P  c #6B654F",
"I  c #7A6542",
"U  c #796746",
"Y  c #6F6655",
"T  c #776D59",
"R  c #7E725C",
"E  c #7B6E68",
"W  c #656764",
"Q  c #81492C",
"!  c #8C4E35",
"~  c #844B30",
"^  c #855736",
"/  c #83553B",
"(  c #8B553B",
")  c #855B3C",
"_  c #895D3D",
"`  c #8A5435",
"'  c #995439",
"]  c #935D3D",
"[  c #9B593D",
"{  c #915034",
"}  c #A1563E",
"|  c #A35C3D",
" . c #84633E",
".. c #88683F",
"X. c #97613F",
"o. c #A4603E",
"O. c #845845",
"+. c #8C5E4A",
"@. c #955F47",
"#. c #9B5D42",
"$. c #A45741",
"%. c #A35D43",
"&. c #A25E49",
"*. c #AA5F4A",
"=. c #836243",
"-. c #896343",
";. c #8D6A4A",
":. c #886948",
">. c #986145",
",. c #926C45",
"<. c #9E644A",
"1. c #936D4B",
"2. c #90674B",
"3. c #8D7246",
"4. c #93734E",
"5. c #936654",
"6. c #957E5A",
"7. c #9B7C5B",
"8. c #967953",
"9. c #A26345",
"0. c #A96246",
"q. c #A4634D",
"w. c #AB694E",
"e. c #AB644C",
"r. c #B0644C",
"t. c #A86854",
"y. c #A37451",
"u. c #AC7356",
"i. c #967963",
"p. c #A47D60",
"a. c #958256",
"s. c #9D865C",
"d. c #8A8752",
"f. c #A0845D",
"g. c #8F8A60",
"h. c #9B8464",
"j. c #9A8868",
"k. c #9F966F",
"l. c #9C8C75",
"z. c #9F987E",
"x. c #A38D62",
"c. c #A78967",
"v. c #B48D69",
"b. c #A49065",
"n. c #AB9166",
"m. c #AC936B",
"M. c #A69A6B",
"N. c #AD9B6D",
"B. c #B39C6C",
"V. c #A88F74",
"C. c #AC9D73",
"Z. c #B39B74",
"A. c #B39C7A",
"S. c #B89977",
"D. c #BBAD77",
"F. c #B4A47D",
"G. c #BBA57D",
"H. c #BDAE7C",
"J. c #B6AC78",
"K. c #BCB375",
"L. c #BDB37D",
"P. c #B6B57F",
"I. c #A7A479",
"U. c #C1A47B",
"Y. c #C3AD7C",
"T. c #C6AF7B",
"R. c #C3B27E",
"E. c #C8B27F",
"W. c #C3B97D",
"Q. c #95958F",
"!. c #989181",
"~. c #949995",
"^. c #B49D8D",
"/. c #BCAE82",
"(. c #B8A887",
"). c #BDB382",
"_. c #BEB884",
"`. c #BFB194",
"'. c #B5BAB6",
"]. c #C4AD83",
"[. c #CAAD85",
"{. c #CCAF89",
"}. c #C5A687",
"|. c #C3B382",
" X c #C9B483",
".X c #C3B984",
"XX c #CABA86",
"oX c #C4B58B",
"OX c #CBB48A",
"+X c #C5BA8B",
"@X c #CCBA8A",
"#X c #D1B68C",
"$X c #CCB593",
"%X c #C5BA94",
"&X c #CABB93",
"*X c #C6BB9F",
"=X c #D1B691",
"-X c #D5B993",
";X c #D1BB9A",
":X c #DBBE99",
">X c #CDC191",
",X c #CCC498",
"<X c #C8C68D",
"1X c #E0C097",
"2X c #CEC4A1",
"3X c #D7C4BD",
"4X c #D5D1C8",
"5X c #C6C7C2",
"6X c #E6E0D4",
"7X c #E9ECE3",
"8X c #FAFAF5",
"9X c #FBF4EA",
/* pixels */
"L.R.E.Y.R.R.R.R.R.E.T.R.|.Z.n.B.W.K.R.R. X[.{.].].].R.L.R.R.R.R.",
").R.E.E.R.R.|.).H. XT.R.&X6.r 3.W.XXR.R.|.].].OX|.|.L.Y.R.R.R.E.",
"|.R.T.].R.R.L.).XXY.Y.|.b.1 > 6 s.|.Y.|.R.E.R.R.R.R.R.W.|./.R.|.",
"|.R.|.T.R.R.).).H.L.Y.+X(.i h.6.x.|.|.L.L.K.R.W.T.K.W.R.R.|.|.|.",
")..XR.R.L.L.L._.L.R.)./.*XR j.j.+XE.R.L..XP.P.L.L.P.L.R.R.R.|.R.",
"L.L.L.R.R.L.L._.R..XL.%Xz.= & T XXD.R.L.W.L.L.L._.L.).L.).R.|.Y.",
"_.L.L.R.R.L.L.L.Y.Y.D.%XP a G s /.|.XXY.Y.T.E.R.E.R.E.|.|.|.|.].",
"P.L.R.R.R.L.R.|.E.|.|.%XP - p u C.|./. XE.R.E.T.T.|.].].|.].|.R.",
"L.R.E.R.T.K.R.E.T.E.Y.+XK - w a C.XX).L.).L.R.].].].OXZ.G. XR.R.",
".XT.T.E.W.R.L.L.R.R.|.&XY = G % A.@X].|.L.).oX,X;X$XG.j m. X|.K.",
"Y.E. XR.D.P._.).H.L.H.%XE - G w I b./.+X).,Xk.B 4 , 5 V 8.@XK.R.",
"R.|.R.Y.).).P.).R.H.).%XW * * $ U i.I.%XI.r X < n +.M 7 g B..XL.",
"L.H.].|.|._.oX+X|.XXoX2X!.Q.~.Q.!.l.i.V.o : <.w.&.&.q.z ) =.oXoX",
").|.@X|.G./.A.7.,.,.3.I H 5X8X9X4XH X q / u.[ | *.&.#.@.C h 7.$X",
").|.m.:.V l m ( #.] ] < % * W '.7X6XT D m Q >.>.#.( 2.=.; 5 V }.",
"OXn.f 5 -.( z e.| 9.q./ % = * + J 9X^.O.<.{ Q Q f Z m.m.=.D ; S.",
"$X=.f e 4.1.#.} | 9.%.&.n @ 0 $ J 9Xi.@.9.w.9._ Z E.U.#X]. .a.|.",
"$X:.e e 8.-.[ r.| | %.&.@./ j w E 4X+.#.| ' X. .Y.XXE.T.OXOX.X|.",
"%XU d 4 M.a.( $.| o.} *.&.*.t.5.9 % O.&.9.9.^ {. XG.E.Y.G.|.|.H.",
"+XU 6 i M.N.! r.| | &.! ' &.#.5.O % +.&.9.Q c.OXT.Y.E.XXXXH.R..X",
"OX4.h l U.v.[ $.| 0.` g y.` ^ b . 0 5.q.{ y.[.].]..XH.H.).).L.R.",
"U.x _ ) -X8.! e.*.X.> n.:XU.N.I & & 3 ( 8 v.OX|.|.).|.R.H.|.L.R.",
"H.F 2 f.:X-.>.#.{ y x  XY.OX|.%XoXV.q / 8 >.#X)..XJ.).|.R.|.L.L.",
").|.C.OXZ. .O.z y t N.XXR.].R.|.(.;X7.~ 8 C ].|./._.|.|.R.E.K.W.",
"R.L.XXOX2.S :.S g f.>X/.L.|.E.H.$X;XO.O.) t b.+X).).).].E.T.R.L.",
"|.Y.].oX;.C A.A N ].H.|..XL.T.XXF.F =.l 3 Z D.E.)._.|.|.R.R.R.R.",
"H.XXL.]. .O.=X6.5 G.|.H. XT.E. Xx   V l 4.[..XL.).].|.T.R.R.R.E.",
"|.J.XX|.l c.=XG.d Z.#XY.Y. XY.E.N.x.N u.:XY.P.L.R.|.].|.).L.R.E.",
"L.E.<Xj.g }.[.[.g 7.OXY.|.|.|.R.XXC.h S.OXOXP.K.|.T.].|.R.L.R.|.",
"E.D.R.a.j A.#X-XC I XXY.).H.|.D..XM.N h.$XD.K.W.E.|.T.Y.L.|.R.].",
"T. X).<XB ; G.].].@ c <XF..XXXR.L.&XN @ F..XW.K.R.R.|.E.R.|.|.).",
"[.T.L._.I.g./.].oXs.d._._.).R.R.D.+XF.j.F.R.W.K.K.R.Y.E.R.R.).)."
};
